<svg width="24px" height="24px" viewBox="0 0 24 24" version="1.1" xmlns="http://www.w3.org/2000/svg" xmlns:xlink="http://www.w3.org/1999/xlink"><g id="Page-1" stroke="currentColor" stroke-width="1" fill="none" fill-rule="evenodd" stroke-linecap="round" stroke-linejoin="round"><g id="Interface-Essential-/-View-/-view-off" stroke="currentColor" stroke-width="1.5"><g id="view-off"><line x1="2.783" y1="21" x2="21.533" y2="3" id="Shape"></line> <path d="M8.964,19.051 C9.94681456,19.3562275 10.9709085,19.5076828 12,19.5 C16.1,19.569 20.258,16.687 22.824,13.863 C23.3938167,13.2303973 23.3938167,12.2696027 22.824,11.637 C21.8944103,10.6172104 20.8645551,9.69355691 19.75,8.88" id="Shape"></path> <path d="M14.413,6.282 C13.6239535,6.08564827 12.8130592,5.99088151 12,6 C7.969,5.933 3.8,8.752 1.179,11.635 C0.609183316,12.2676027 0.609183316,13.2283973 1.179,13.861 C1.97592454,14.7333975 2.84573761,15.5363019 3.779,16.261" id="Shape"></path> <path d="M8.24999973,12.75 C8.24973466,11.7553568 8.6447376,10.8013755 9.34805654,10.0980565 C10.0513755,9.3947376 11.0053568,8.99973466 12,8.99999973" id="Shape"></path> <path d="M15.7500003,12.749 L15.7500003,12.749 C15.7502653,13.7437351 15.3552942,14.6978192 14.652004,15.4012969 C13.9487139,16.1047746 12.9947351,16.5 12,16.5" id="Shape"></path></g></g></g></svg>
